<svg width="30" height="30" viewBox="0 0 30 30" fill="none" xmlns="http://www.w3.org/2000/svg">
<path fill-rule="evenodd" clip-rule="evenodd" d="M15 30C6.71573 30 0 23.2843 0 15C0 6.71573 6.71573 0 15 0C23.2843 0 30 6.71573 30 15C30 23.2843 23.2843 30 15 30ZM11.0938 7.96875C9.36786 7.96875 7.96875 9.36786 7.96875 11.0938V18.9062C7.96875 20.6321 9.36786 22.0312 11.0938 22.0312H18.9062C20.6321 22.0312 22.0312 20.6321 22.0312 18.9062V11.0938C22.0312 9.36786 20.6321 7.96875 18.9062 7.96875H11.0938ZM6.40625 11.0938C6.40625 8.50492 8.50492 6.40625 11.0938 6.40625H18.9062C21.4951 6.40625 23.5938 8.50492 23.5938 11.0938V18.9062C23.5938 21.4951 21.4951 23.5938 18.9062 23.5938H11.0938C8.50492 23.5938 6.40625 21.4951 6.40625 18.9062V11.0938ZM13.9543 12.8858C14.3919 12.6588 14.8899 12.5755 15.3776 12.6478C15.875 12.7216 16.3355 12.9533 16.6911 13.3089C17.0467 13.6645 17.2784 14.125 17.3522 14.6224C17.4245 15.1101 17.3412 15.6081 17.1142 16.0457C16.8871 16.4832 16.5279 16.8381 16.0875 17.0597C15.6472 17.2814 15.1482 17.3585 14.6614 17.2802C14.1747 17.2019 13.7251 16.9721 13.3765 16.6235C13.0279 16.2749 12.7981 15.8253 12.7198 15.3385C12.6415 14.8518 12.7186 14.3528 12.9403 13.9125C13.1619 13.4721 13.5168 13.1129 13.9543 12.8858ZM15.6068 11.1022C14.794 10.9817 13.964 11.1205 13.2347 11.4989C12.5054 11.8773 11.914 12.4761 11.5446 13.21C11.1752 13.9439 11.0466 14.7756 11.1772 15.5868C11.3077 16.398 11.6907 17.1474 12.2717 17.7283C12.8526 18.3093 13.602 18.6923 14.4132 18.8228C15.2244 18.9534 16.0561 18.8248 16.79 18.4554C17.5239 18.086 18.1227 17.4946 18.5011 16.7653C18.8795 16.036 19.0183 15.206 18.8978 14.3932C18.7749 13.5642 18.3886 12.7967 17.7959 12.2041C17.2033 11.6114 16.4358 11.2251 15.6068 11.1022Z" fill="#476FFF"/>
</svg>
