<svg width="30" height="30" viewBox="0 0 30 30" fill="none" xmlns="http://www.w3.org/2000/svg">
<path fill-rule="evenodd" clip-rule="evenodd" d="M0 15C0 23.2843 6.71573 30 15 30C23.2843 30 30 23.2843 30 15C30 6.71573 23.2843 0 15 0C6.71573 0 0 6.71573 0 15ZM7.27148 14.6027C7.27734 10.201 10.7402 6.62266 15 6.62266C17.0625 6.62266 18.9961 7.45215 20.4609 8.96582C21.9199 10.4734 22.8105 12.4775 22.8105 14.6088C22.8105 19.0105 19.2539 22.5889 15 22.5889H14.9941C13.6055 22.5889 12.2461 22.2014 11.0625 21.4748L10.7812 21.2992L7.85742 22.0924L8.63672 19.1498L8.45508 18.8471C7.68164 17.5816 7.27148 16.1104 7.27148 14.6027ZM17.9766 19.168C18.4219 19.1014 19.3477 18.5928 19.541 18.0297C19.7344 17.4727 19.7344 16.9883 19.6816 16.8732C19.6341 16.7947 19.525 16.74 19.3605 16.6576C19.3221 16.6384 19.2807 16.6176 19.2363 16.5947C19.0019 16.4736 17.8594 15.8924 17.6484 15.8137C17.4375 15.735 17.2793 15.6926 17.127 15.9348C16.9746 16.1709 16.5293 16.7158 16.3945 16.8732C16.2598 17.0367 16.125 17.0549 15.8906 16.9338C14.5254 16.2254 13.6289 15.6744 12.7324 14.082C12.5992 13.8469 12.6859 13.7534 12.8655 13.5597C13.0097 13.4041 13.2138 13.184 13.4121 12.7742C13.4941 12.6168 13.4531 12.4775 13.3945 12.3564C13.3572 12.2793 13.1557 11.7719 12.9644 11.2902C12.8555 11.0159 12.7498 10.7499 12.6797 10.5764C12.5131 10.1621 12.3419 10.1637 12.2071 10.165C12.1902 10.1652 12.1739 10.1653 12.1582 10.1646C12.0234 10.1586 11.8652 10.1586 11.7129 10.1586C11.5547 10.1586 11.3027 10.2191 11.0918 10.4613C11.0791 10.4756 11.065 10.491 11.0498 10.5076C10.8068 10.7739 10.2773 11.3541 10.2773 12.4654C10.2773 13.6461 11.1094 14.7904 11.2266 14.9478C11.2351 14.9593 11.251 14.9827 11.2742 15.0167C11.5694 15.45 13.0362 17.6028 15.1934 18.5686C16.6641 19.2225 17.2383 19.283 17.9766 19.168ZM10.5527 23.0369C11.9062 23.7998 13.4355 24.2055 14.9941 24.2055C20.1152 24.2055 24.375 19.9006 24.375 14.6088C24.375 12.0416 23.3203 9.63184 21.5684 7.81543C19.8105 5.99902 17.4785 5 14.9941 5C9.87305 5 5.70703 9.30488 5.70117 14.5967C5.70117 16.292 6.12891 17.9449 6.94336 19.398L5.625 24.375L10.5527 23.0369Z" fill="#476FFF"/>
</svg>
