<svg width="141" height="89" viewBox="0 0 141 89" fill="none" xmlns="http://www.w3.org/2000/svg">
<path d="M8.68262 61.7266V61.71C8.63835 62.2633 8.29525 64.488 7.65332 68.3838C7.40983 69.8115 7.27702 70.6471 7.25488 70.8906L7.15527 71.6875C6.94499 73.3145 6.83984 74.4157 6.83984 74.9912L6.90625 76.0039C6.90625 77.2767 6.24219 77.9131 4.91406 77.9131C3.37565 77.9131 2.60645 77.0664 2.60645 75.373C2.60645 74.3659 2.82227 72.7334 3.25391 70.4756C3.37565 69.8447 3.50293 69.1143 3.63574 68.2842C3.66895 68.0407 3.74642 67.598 3.86816 66.9561C4.68717 62.6175 5.09668 59.4466 5.09668 57.4434C5.09668 57.1667 5.03581 57.0228 4.91406 57.0117C3.51953 56.89 2.82227 56.32 2.82227 55.3018C2.82227 54.6709 2.99935 54.1673 3.35352 53.791C3.70768 53.4036 4.18359 53.1989 4.78125 53.1768C5.6556 53.1325 6.31966 52.9775 6.77344 52.7119C7.23828 52.4795 7.64779 52.3633 8.00195 52.3633C8.59961 52.3633 9.08659 52.4795 9.46289 52.7119C9.77279 52.889 10.6803 52.9775 12.1855 52.9775C12.2077 52.9775 13.3532 52.9443 15.6221 52.8779C17.891 52.8115 19.0863 52.7617 19.208 52.7285C19.3298 52.6842 19.5511 52.5902 19.8721 52.4463C20.3258 52.2471 20.7852 52.1475 21.25 52.1475C21.6152 52.1475 21.8864 52.1751 22.0635 52.2305C22.2295 52.2969 22.3844 52.3301 22.5283 52.3301L24.1387 52.2305C24.5592 52.2083 24.9521 52.3245 25.3174 52.5791C25.6937 52.8337 25.8818 53.2542 25.8818 53.8408C25.8818 54.4495 25.666 54.9642 25.2344 55.3848C24.8027 55.8053 24.2992 56.0433 23.7236 56.0986C23.5908 56.1097 23.458 56.1872 23.3252 56.3311C23.1924 56.4639 22.9544 57.3604 22.6113 59.0205C22.2682 60.6696 21.9417 63.1654 21.6318 66.5078C21.333 69.8503 21.1836 72.8773 21.1836 75.5889C21.1836 76.1865 20.9622 76.6956 20.5195 77.1162C20.0768 77.5368 19.7282 77.7471 19.4736 77.7471C17.8356 77.7471 17.0166 76.3802 17.0166 73.6465C17.0166 71.1673 17.6087 65.6667 18.793 57.1445C18.8483 56.7461 18.876 56.5247 18.876 56.4805C18.876 56.3919 18.7764 56.3311 18.5771 56.2979C18.389 56.2646 17.5811 56.248 16.1533 56.248H13.1484C12.0306 56.2591 11.1839 56.32 10.6084 56.4307C10.0439 56.5413 9.69531 56.6576 9.5625 56.7793C9.42969 56.89 9.28581 57.3327 9.13086 58.1074C8.97591 58.8822 8.8265 60.0885 8.68262 61.7266ZM42.1852 68.583C41.4437 71.1729 40.0326 73.3587 37.9518 75.1406C35.8822 76.9115 33.8125 77.7969 31.7429 77.7969C30.1048 77.7969 28.7546 77.1992 27.6921 76.0039C26.6296 74.7975 26.0983 73.32 26.0983 71.5713C26.0983 68.7158 27.0723 65.9046 29.0202 63.1377C30.9681 60.3708 33.3311 58.9873 36.1091 58.9873C38.0016 58.9873 39.5345 59.6901 40.7077 61.0957C41.8809 62.4902 42.4675 64.1559 42.4675 66.0928C42.4675 66.9339 42.3734 67.7585 42.1852 68.5664V68.583ZM33.5524 63.3369C32.7777 64.0231 32.0195 65.1188 31.278 66.624C30.5365 68.1292 30.1657 69.64 30.1657 71.1562C30.1657 72.0749 30.3317 72.833 30.6637 73.4307C31.0068 74.0283 31.4551 74.3271 32.0085 74.3271C33.3809 74.3271 34.8086 73.5137 36.2917 71.8867C37.7748 70.2598 38.5163 68.4336 38.5163 66.4082C38.5163 65.2682 38.2728 64.333 37.7858 63.6025C37.3099 62.861 36.6403 62.4902 35.777 62.4902C34.958 62.4902 34.222 62.7725 33.569 63.3369H33.5524ZM56.8783 58.3232C56.8783 58.3122 56.8783 58.3011 56.8783 58.29C56.8893 58.2679 56.9115 58.2347 56.9447 58.1904C56.989 58.113 57.0111 58.0189 57.0111 57.9082C57.0111 57.2109 56.751 56.4085 56.2308 55.501C55.7217 54.5934 55.0078 53.9349 54.0892 53.5254C53.1817 53.1159 52.3405 52.9111 51.5658 52.9111C51.1895 52.9111 50.5033 53.1602 49.5072 53.6582C48.7767 54.0234 48.2289 54.2061 47.8636 54.2061C47.0336 54.2061 46.6185 53.8298 46.6185 53.0771C46.6185 52.5791 47.017 51.8597 47.8138 50.9189C48.6107 49.9671 49.9886 49.4912 51.9476 49.4912C54.3936 49.4912 56.3304 50.0335 57.7582 51.1182C59.197 52.1917 60.182 53.5918 60.7132 55.3184C61.2556 57.0449 61.5267 59.2861 61.5267 62.042C61.5267 63.8903 60.8737 66.3031 59.5677 69.2803C58.2728 72.2464 56.6237 74.4268 54.6205 75.8213C52.6172 77.2158 50.5365 77.9131 48.3783 77.9131C47.4486 77.9131 46.5798 77.4261 45.7718 76.4521C44.975 75.4671 44.5765 74.2607 44.5765 72.833C44.5765 70.3538 45.1354 68.1403 46.2533 66.1924C47.3822 64.2445 48.6439 62.6784 50.0384 61.4941C51.433 60.3099 53.2481 59.4079 55.4837 58.7881C56.1146 58.611 56.5795 58.4561 56.8783 58.3232ZM57.5423 61.8428C55.6166 62.2744 54.0339 62.9938 52.7943 64.001C51.8867 64.8311 50.9792 65.9766 50.0716 67.4375C49.1641 68.8984 48.7103 70.7135 48.7103 72.8828C48.7103 73.1816 48.7878 73.4694 48.9427 73.7461C49.0977 74.0117 49.236 74.1445 49.3578 74.1445C51.2171 74.1445 53.0489 72.8109 54.8529 70.1436C56.668 67.4652 57.5645 64.6982 57.5423 61.8428ZM73.4307 71.4717C70.542 75.29 67.764 77.1992 65.0967 77.1992C64.1006 77.1992 63.2429 76.8063 62.5235 76.0205C61.8041 75.2347 61.4444 74.2331 61.4444 73.0156C61.4444 70.0827 62.7504 66.9616 65.3623 63.6523C67.9743 60.332 70.6084 58.6719 73.2647 58.6719C74.6149 58.6719 75.5004 59.3525 75.9209 60.7139C77.1937 60.7139 77.8301 61.2008 77.8301 62.1748C77.8301 62.6396 77.7084 63.4808 77.4649 64.6982C77.0222 66.9782 76.8008 68.7988 76.8008 70.1602C76.8008 71.5768 76.8949 72.5729 77.083 73.1484C77.2823 73.724 77.4261 74.1003 77.5147 74.2773C77.6032 74.4544 77.8689 74.6426 78.3116 74.8418C78.7543 75.0521 78.9756 75.3454 78.9756 75.7217C78.9756 76.2861 78.6879 76.7565 78.1123 77.1328C77.5479 77.5091 76.9558 77.6973 76.336 77.6973C75.2956 77.6973 74.543 77.1771 74.0782 76.1367C73.6244 75.0964 73.3975 73.8789 73.3975 72.4844V71.9863C73.3975 71.8203 73.4086 71.6488 73.4307 71.4717ZM72.5342 62.2246C71.4164 62.2246 69.961 63.4642 68.168 65.9434C66.3861 68.4115 65.4952 70.5088 65.4952 72.2354C65.4952 73.1429 65.6833 73.5967 66.0596 73.5967C67.3656 73.5967 68.9704 72.4401 70.8741 70.127C72.7888 67.8027 73.7461 65.7718 73.7461 64.0342C73.7461 63.4808 73.6189 63.0436 73.3643 62.7227C73.1208 62.3906 72.8441 62.2246 72.5342 62.2246ZM85.3181 75.9209C85.0967 76.8174 84.82 78.4665 84.488 80.8682C84.156 83.2809 83.9568 84.8968 83.8904 85.7158C83.8239 86.5459 83.5362 87.2487 83.0271 87.8242C82.529 88.3997 82.0808 88.6875 81.6823 88.6875C81.1843 88.6875 80.6918 88.4993 80.2048 88.123C79.7178 87.7467 79.4743 87.3372 79.4743 86.8945C79.4743 85.998 79.6127 84.9632 79.8894 83.79C81.5495 77.1605 82.4571 70.3262 82.612 63.2871V62.9551C82.612 61.5827 82.6563 60.6585 82.7448 60.1826C82.8334 59.6956 83.1101 59.2308 83.5749 58.7881C84.0398 58.3454 84.5876 58.124 85.2185 58.124C85.7497 58.124 86.1814 58.362 86.5134 58.8379C86.8565 59.3138 87.028 60 87.028 60.8965C87.028 61.804 86.862 63.3923 86.53 65.6611C87.7585 63.6136 89.225 61.9202 90.9294 60.5811C92.6449 59.2308 94.2055 58.5557 95.6111 58.5557C96.8506 58.5557 97.9021 58.9984 98.7654 59.8838C99.6397 60.7692 100.077 61.8815 100.077 63.2207C100.077 66.7956 98.6879 70.0495 95.9099 72.9824C93.143 75.9043 90.4037 77.3652 87.6921 77.3652C86.4304 77.3652 85.639 76.8838 85.3181 75.9209ZM94.9636 62.3242C93.6133 62.3242 91.8591 63.6413 89.7009 66.2754C87.5538 68.9095 86.4802 70.9792 86.4802 72.4844C86.4802 72.8717 86.6683 73.2204 87.0446 73.5303C87.432 73.8291 87.8803 73.9785 88.3894 73.9785C89.795 73.9785 91.4053 72.8773 93.2204 70.6748C95.0466 68.4613 95.9597 66.3252 95.9597 64.2666C95.9597 63.5804 95.8545 63.0879 95.6443 62.7891C95.434 62.4792 95.2071 62.3242 94.9636 62.3242ZM111.433 68.5332C111.931 68.6549 112.396 68.8708 112.828 69.1807C113.259 69.4906 113.774 70.055 114.371 70.874C115.523 72.4678 116.43 73.5137 117.094 74.0117C117.758 74.5098 118.483 74.7588 119.269 74.7588C120.088 74.7588 120.497 75.0133 120.497 75.5225C120.497 76.0094 120.215 76.502 119.651 77C119.086 77.498 118.195 77.7471 116.978 77.7471C115.107 77.7471 113.209 76.2031 111.284 73.1152C110.166 71.3001 109.231 70.3926 108.478 70.3926C108.378 70.3926 108.107 70.4645 107.664 70.6084C107.233 70.7523 106.951 70.8851 106.818 71.0068C106.685 71.1175 106.574 71.8203 106.486 73.1152L106.303 76.1699C106.281 76.668 106.076 77.0941 105.689 77.4482C105.301 77.8135 104.82 77.9961 104.245 77.9961C103.636 77.9961 103.16 77.8245 102.817 77.4814C102.474 77.1494 102.302 76.8118 102.302 76.4688C102.302 76.0482 102.44 75.1462 102.717 73.7627C103.381 70.2764 103.907 66.0153 104.294 60.9795C104.339 60.3376 104.604 59.751 105.091 59.2197C105.578 58.6885 106.148 58.4229 106.801 58.4229C107.255 58.4229 107.631 58.6165 107.93 59.0039C108.229 59.3913 108.378 59.8395 108.378 60.3486C108.378 60.7471 108.312 61.151 108.179 61.5605C108.013 62.0365 107.775 63.0104 107.465 64.4824C107.166 65.9544 106.984 67.0778 106.917 67.8525C108.234 67.4541 109.258 66.9007 109.989 66.1924C110.719 65.484 111.627 64.3496 112.711 62.7891C113.619 61.5052 114.471 60.5589 115.268 59.9502C116.065 59.3304 116.939 59.0205 117.891 59.0205C118.411 59.0205 118.893 59.2419 119.335 59.6846C119.789 60.1162 120.016 60.5755 120.016 61.0625C120.016 61.472 119.889 61.7819 119.634 61.9922C119.391 62.1914 118.959 62.3851 118.339 62.5732C117.553 62.8057 116.712 63.4365 115.816 64.4658C113.956 66.6019 112.496 67.9577 111.433 68.5332ZM133.663 70.9238C132.601 72.8607 131.367 74.3991 129.961 75.5391C128.566 76.679 127.15 77.249 125.711 77.249C124.859 77.249 123.996 76.8008 123.121 75.9043C122.258 75.0078 121.826 73.6299 121.826 71.7705C121.826 70.4535 122.158 68.4668 122.822 65.8105C123.398 63.6191 123.686 61.9535 123.686 60.8135C124.128 59.8838 124.82 59.4189 125.761 59.4189C126.403 59.4189 126.912 59.6348 127.288 60.0664C127.676 60.487 127.869 60.9131 127.869 61.3447C127.869 62.1305 127.593 63.2484 127.039 64.6982C126.718 65.5615 126.37 66.7845 125.993 68.3672C125.628 69.9388 125.445 70.946 125.445 71.3887C125.445 72.8607 125.75 73.5967 126.358 73.5967C127.321 73.5967 128.622 72.6725 130.26 70.8242C131.898 68.9759 132.966 67.0833 133.464 65.1465C133.962 63.2539 134.405 62.0143 134.792 61.4277C135.179 60.8411 135.727 60.5479 136.436 60.5479C137.587 60.5479 138.162 61.1898 138.162 62.4736C138.162 62.6618 138.068 63.0381 137.88 63.6025C137.227 65.5615 136.9 67.7695 136.9 70.2266C136.9 73.1042 137.387 74.8252 138.361 75.3896C138.682 75.5778 138.843 75.8102 138.843 76.0869C138.843 76.4854 138.561 76.8617 137.996 77.2158C137.432 77.57 136.895 77.7471 136.386 77.7471C135.511 77.7471 134.836 77.1328 134.36 75.9043C133.896 74.6647 133.663 73.0046 133.663 70.9238Z" fill="black"/>
<rect x="45" y="15" width="50" height="13" rx="3" fill="#EBFF00"/>
<path d="M87.7637 15.625C88.3691 14.4434 88.75 13.1348 88.75 11.7188C88.75 6.98242 84.8926 3.125 80.1562 3.125C76.0938 3.125 73.4668 5.20508 70.0977 9.79492C66.7285 5.20508 64.1016 3.125 60.0391 3.125C55.3027 3.125 51.4453 6.98242 51.4453 11.7188C51.4453 13.1348 51.8633 14.75 52.4316 15.625C53 16.5 54 17.5 55.5 18C57 18.5 59 18.5 61.5 18C64 17.5 68.4375 15.625 68.4375 15.625H60.0293C57.8711 15.625 56.123 13.877 56.123 11.7188C56.123 9.56055 57.8711 7.8125 60.0293 7.8125C61.9727 7.8125 63.4082 8.13477 68.4375 15.625L64.0589 27.959L66.875 26L69 28.125L70.0977 22L71.748 28.125L73.5 26L76 28.125L71.748 15.625C76.7676 8.1543 78.1641 7.8125 80.1562 7.8125C82.3145 7.8125 84.0625 9.56055 84.0625 11.7188C84.0625 13.877 82.3145 15.625 80.1562 15.625H71.748L77 18C77 18 81 19 83.5 18.5C86 18 87.7637 15.625 87.7637 15.625Z" fill="#FF0000"/>
<path d="M51.25 46.875C49.5215 46.875 48.125 45.4785 48.125 43.75V31.25H66.875V46.875H51.25Z" fill="#DB00FF" fill-opacity="0.87"/>
<path d="M73.125 46.875H88.75C90.4785 46.875 91.875 45.4785 91.875 43.75V31.25H73.125V46.875Z" fill="#476FFF"/>
<line x1="25" y1="47.5" x2="115" y2="47.5" stroke="black"/>
</svg>
