<svg width="83" height="109" viewBox="0 0 83 109" fill="none" xmlns="http://www.w3.org/2000/svg">
<g filter="url(#filter0_d_19_105)">
<path d="M17.804 70.4777L17.8035 70.4776C16.2263 70.0547 14.8154 69.3331 13.5398 68.4691L5.16041 89.0142C5.16038 89.0142 5.16035 89.0143 5.16033 89.0144C4.57761 90.4443 5.66602 91.9986 7.21021 91.9401L17.5009 91.5476L17.9537 91.5303L18.2653 91.8594L25.343 99.3355L17.804 70.4777ZM17.804 70.4777C18.4899 70.6613 19.0488 70.804 19.4928 70.9174C19.7105 70.973 19.9006 71.0215 20.0646 71.0644C20.593 71.2025 20.8378 71.2794 20.999 71.353C21.1174 71.4071 21.2023 71.4636 21.3692 71.6239C21.4797 71.7299 21.5808 71.8351 21.7123 71.9718C21.8483 72.1132 22.0168 72.2884 22.2617 72.5333L22.9622 71.8327L22.2619 72.5335C25.1427 75.4122 28.975 77 33.0488 77C34.7833 77 36.4713 76.6734 38.0655 76.09M17.804 70.4777L38.0655 76.09M38.0655 76.09L28.8534 98.677L28.8533 98.6772C28.2706 100.107 26.4068 100.457 25.3434 99.3359L38.0655 76.09ZM65.1965 70.4776C66.7734 70.0547 68.1844 69.3345 69.4604 68.4697L77.8397 89.0144L78.7656 88.6367L77.8397 89.0145C78.4223 90.4424 77.334 91.9986 75.7898 91.9401L65.4991 91.5476L65.0464 91.5303L64.7349 91.8593L57.6548 99.3358L57.6547 99.3359C56.5936 100.457 54.7277 100.107 54.1448 98.6772L54.1447 98.677L44.9322 76.089C46.5262 76.6724 48.2144 77 49.9492 77C54.0229 77 57.8572 75.4123 60.7381 72.5335L60.7384 72.5333C60.9921 72.2796 61.1607 72.1036 61.2964 71.962C61.4213 71.8317 61.5183 71.7305 61.6281 71.6245C61.7936 71.4647 61.8763 71.4094 61.9926 71.3562C62.1523 71.283 62.3964 71.2061 62.9263 71.0673C63.0926 71.0238 63.2862 70.9742 63.5085 70.9174C63.9529 70.8038 64.5118 70.6609 65.1961 70.4777L65.1965 70.4776ZM54.6539 66.7053L54.6538 66.7055C52.3982 69.002 48.8925 69.4095 46.1892 67.698C44.7874 66.8084 43.1613 66.3359 41.501 66.3359C39.8407 66.3359 38.2148 66.8083 36.813 67.6979C34.1075 69.4096 30.6017 69.0019 28.3463 66.7055C26.9028 65.2356 25.9957 64.4347 24.8345 63.884C23.9773 63.4776 22.9798 63.214 21.5786 62.8438C21.1922 62.7416 20.775 62.6314 20.3216 62.5078C17.9598 61.8633 16.1025 59.9806 15.4651 57.5581L15.4651 57.5578C15.3703 57.1979 15.2827 56.861 15.2004 56.5447C14.6692 54.503 14.36 53.3143 13.7807 52.2931C13.2014 51.2721 12.3444 50.405 10.8766 48.9199C10.6474 48.6881 10.4033 48.4411 10.1431 48.1762C8.40602 46.4065 7.72391 43.823 8.36163 41.3989C8.45611 41.04 8.54549 40.7045 8.62945 40.3893C9.17348 38.3473 9.48975 37.1601 9.48951 35.9817C9.48927 34.8059 9.17382 33.6232 8.63254 31.5939C8.54765 31.2756 8.45721 30.9365 8.36155 30.5734L8.36146 30.573C7.72221 28.1497 8.40582 25.5664 10.143 23.7985L10.1431 23.7984C10.4034 23.5334 10.6474 23.2865 10.8766 23.0546C12.3445 21.5694 13.2019 20.702 13.7814 19.6808C14.3615 18.6584 14.6707 17.4687 15.202 15.4245C15.2839 15.1096 15.371 14.7745 15.4651 14.4166L15.4651 14.4165C16.1025 11.9939 17.9599 10.1111 20.3218 9.46667C20.6769 9.36978 21.0093 9.28022 21.3216 9.1961C23.3225 8.65698 24.4951 8.34104 25.5017 7.74963C26.5085 7.15812 27.3625 6.28324 28.8237 4.78624C29.0501 4.55433 29.291 4.30749 29.5494 4.04446L29.5496 4.04427C31.2844 2.277 33.8081 1.59217 36.1684 2.2362L36.1687 2.23628C36.5212 2.33235 36.8508 2.42331 37.1606 2.50879C39.1649 3.06185 40.3387 3.38573 41.5039 3.38549C42.6666 3.38524 43.8362 3.06221 45.829 2.51186C46.1418 2.42547 46.4749 2.33347 46.8315 2.23624L46.8316 2.2362C49.1915 1.59229 51.7155 2.27859 53.4508 4.04462L53.4508 4.04464C53.7081 4.30641 53.9481 4.55213 54.1736 4.78306C55.6386 6.28307 56.4939 7.15876 57.5017 7.75051C58.5073 8.34095 59.6782 8.65646 61.6743 9.19439C61.9883 9.279 62.3227 9.3691 62.6801 9.46665L62.6801 9.46667C65.0421 10.1111 66.8995 11.9939 67.5368 14.4165L67.5369 14.4169C67.6319 14.7773 67.7197 15.1146 67.8021 15.4314C68.3329 17.4714 68.6421 18.6596 69.2213 19.6806C69.801 20.7027 70.6588 21.5707 72.1288 23.058C72.357 23.2889 72.5999 23.5347 72.8588 23.7984L72.859 23.7985C74.5957 25.566 75.2781 28.1493 74.6404 30.5735C74.5459 30.9323 74.4566 31.2677 74.3726 31.5827C73.8285 33.6241 73.5122 34.811 73.5125 35.9897C73.5127 37.1657 73.8281 38.349 74.3694 40.3799C74.4543 40.6983 74.5447 41.0376 74.6404 41.401C75.2781 43.8252 74.5958 46.4086 72.859 48.1761L72.8588 48.1762C72.5986 48.4411 72.3546 48.6881 72.1254 48.9199C70.6576 50.405 69.8006 51.2721 69.2213 52.2931C68.642 53.3143 68.3327 54.503 67.8016 56.5446C67.7193 56.861 67.6317 57.1979 67.5369 57.5578L67.5368 57.5581C66.8995 59.9805 65.0422 61.8633 62.6804 62.5078C62.1636 62.6487 61.6934 62.7707 61.2616 62.8828C60.0044 63.209 59.0725 63.4508 58.26 63.8276C57.0934 64.3687 56.1542 65.1786 54.6539 66.7053ZM41.5 15.6133C30.7554 15.6133 22.0742 24.4742 22.0742 35.3672C22.0742 46.2602 30.7554 55.1211 41.5 55.1211C52.2446 55.1211 60.9258 46.2602 60.9258 35.3672C60.9258 24.4742 52.2446 15.6133 41.5 15.6133Z" stroke="#DB00FF" stroke-width="2" shape-rendering="crispEdges"/>
</g>
<defs>
<filter id="filter0_d_19_105" x="-0.00038147" y="0.998413" width="83.0008" height="108.002" filterUnits="userSpaceOnUse" color-interpolation-filters="sRGB">
<feFlood flood-opacity="0" result="BackgroundImageFix"/>
<feColorMatrix in="SourceAlpha" type="matrix" values="0 0 0 0 0 0 0 0 0 0 0 0 0 0 0 0 0 0 127 0" result="hardAlpha"/>
<feOffset dy="4"/>
<feGaussianBlur stdDeviation="2"/>
<feComposite in2="hardAlpha" operator="out"/>
<feColorMatrix type="matrix" values="0 0 0 0 0.86 0 0 0 0 0 0 0 0 0 1 0 0 0 1 0"/>
<feBlend mode="normal" in2="BackgroundImageFix" result="effect1_dropShadow_19_105"/>
<feBlend mode="normal" in="SourceGraphic" in2="effect1_dropShadow_19_105" result="shape"/>
</filter>
</defs>
</svg>
