<svg width="83" height="109" viewBox="0 0 83 109" fill="none" xmlns="http://www.w3.org/2000/svg">
<g filter="url(#filter0_d_19_105)">
<mask id="path-1-inside-1_19_105" fill="white">
<path d="M22.9688 71.8262C21.2715 70.1289 22.1563 70.6074 18.0625 69.5117C16.2051 69.0137 14.5723 68.0566 13.0957 66.9101L4.23438 88.6367C3.37696 90.7402 4.97852 93.0254 7.24805 92.9394L17.5391 92.5469L24.6172 100.023C26.1797 101.672 28.9219 101.158 29.7793 99.0547L39.9453 74.1289C37.8281 75.3086 35.4785 76 33.0488 76C29.2402 76 25.6621 74.5176 22.9688 71.8262V71.8262ZM78.7656 88.6367L69.9043 66.9101C68.4277 68.0586 66.7949 69.0137 64.9375 69.5117C60.8223 70.6133 61.7246 70.1328 60.0313 71.8262C57.3379 74.5176 53.7578 76 49.9492 76C47.5195 76 45.1699 75.3066 43.0527 74.1289L53.2188 99.0547C54.0762 101.158 56.8203 101.672 58.3809 100.023L65.461 92.5469L75.752 92.9394C78.0215 93.0254 79.6231 90.7383 78.7656 88.6367V88.6367ZM55.3672 67.4062C58.3516 64.3691 58.6934 64.6308 62.9434 63.4726C65.6563 62.7324 67.7774 60.5742 68.5039 57.8125C69.9649 52.2656 69.586 52.9355 73.5723 48.8769C75.5586 46.8555 76.334 43.9082 75.6074 41.1465C74.1485 35.6035 74.1465 36.3769 75.6074 30.8281C76.334 28.0664 75.5586 25.1191 73.5723 23.0976C69.586 19.039 69.9649 19.707 68.5039 14.1621C67.7774 11.4004 65.6563 9.24217 62.9434 8.50194C57.4981 7.01561 58.1543 7.40428 54.1641 3.34374C52.1777 1.32225 49.2813 0.531238 46.5684 1.27147C41.125 2.75585 41.8848 2.7578 36.4316 1.27147C33.7188 0.531238 30.8223 1.3203 28.8359 3.34374C24.8496 7.40233 25.5059 7.01561 20.0586 8.50194C17.3457 9.24217 15.2246 11.4004 14.4981 14.1621C13.0391 19.707 13.416 19.039 9.42969 23.0976C7.44336 25.1191 6.66602 28.0664 7.39454 30.8281C8.85352 36.3672 8.85547 35.5937 7.39454 41.1445C6.66797 43.9062 7.44336 46.8535 9.42969 48.8769C13.416 52.9355 13.0371 52.2656 14.4981 57.8125C15.2246 60.5742 17.3457 62.7324 20.0586 63.4726C24.4297 64.664 24.7559 64.4765 27.6328 67.4062C30.2168 70.0371 34.2422 70.5078 37.3477 68.543C38.5895 67.7546 40.03 67.3359 41.501 67.3359C42.9719 67.3359 44.4125 67.7546 45.6543 68.543C48.7578 70.5078 52.7832 70.0371 55.3672 67.4062ZM23.0742 35.3672C23.0742 25.0098 31.3242 16.6133 41.5 16.6133C51.6758 16.6133 59.9258 25.0098 59.9258 35.3672C59.9258 45.7246 51.6758 54.1211 41.5 54.1211C31.3242 54.1211 23.0742 45.7246 23.0742 35.3672V35.3672Z"/>
</mask>
<path d="M22.9688 71.8262C21.2715 70.1289 22.1563 70.6074 18.0625 69.5117C16.2051 69.0137 14.5723 68.0566 13.0957 66.9101L4.23438 88.6367C3.37696 90.7402 4.97852 93.0254 7.24805 92.9394L17.5391 92.5469L24.6172 100.023C26.1797 101.672 28.9219 101.158 29.7793 99.0547L39.9453 74.1289C37.8281 75.3086 35.4785 76 33.0488 76C29.2402 76 25.6621 74.5176 22.9688 71.8262V71.8262ZM78.7656 88.6367L69.9043 66.9101C68.4277 68.0586 66.7949 69.0137 64.9375 69.5117C60.8223 70.6133 61.7246 70.1328 60.0313 71.8262C57.3379 74.5176 53.7578 76 49.9492 76C47.5195 76 45.1699 75.3066 43.0527 74.1289L53.2188 99.0547C54.0762 101.158 56.8203 101.672 58.3809 100.023L65.461 92.5469L75.752 92.9394C78.0215 93.0254 79.6231 90.7383 78.7656 88.6367V88.6367ZM55.3672 67.4062C58.3516 64.3691 58.6934 64.6308 62.9434 63.4726C65.6563 62.7324 67.7774 60.5742 68.5039 57.8125C69.9649 52.2656 69.586 52.9355 73.5723 48.8769C75.5586 46.8555 76.334 43.9082 75.6074 41.1465C74.1485 35.6035 74.1465 36.3769 75.6074 30.8281C76.334 28.0664 75.5586 25.1191 73.5723 23.0976C69.586 19.039 69.9649 19.707 68.5039 14.1621C67.7774 11.4004 65.6563 9.24217 62.9434 8.50194C57.4981 7.01561 58.1543 7.40428 54.1641 3.34374C52.1777 1.32225 49.2813 0.531238 46.5684 1.27147C41.125 2.75585 41.8848 2.7578 36.4316 1.27147C33.7188 0.531238 30.8223 1.3203 28.8359 3.34374C24.8496 7.40233 25.5059 7.01561 20.0586 8.50194C17.3457 9.24217 15.2246 11.4004 14.4981 14.1621C13.0391 19.707 13.416 19.039 9.42969 23.0976C7.44336 25.1191 6.66602 28.0664 7.39454 30.8281C8.85352 36.3672 8.85547 35.5937 7.39454 41.1445C6.66797 43.9062 7.44336 46.8535 9.42969 48.8769C13.416 52.9355 13.0371 52.2656 14.4981 57.8125C15.2246 60.5742 17.3457 62.7324 20.0586 63.4726C24.4297 64.664 24.7559 64.4765 27.6328 67.4062C30.2168 70.0371 34.2422 70.5078 37.3477 68.543C38.5895 67.7546 40.03 67.3359 41.501 67.3359C42.9719 67.3359 44.4125 67.7546 45.6543 68.543C48.7578 70.5078 52.7832 70.0371 55.3672 67.4062ZM23.0742 35.3672C23.0742 25.0098 31.3242 16.6133 41.5 16.6133C51.6758 16.6133 59.9258 25.0098 59.9258 35.3672C59.9258 45.7246 51.6758 54.1211 41.5 54.1211C31.3242 54.1211 23.0742 45.7246 23.0742 35.3672V35.3672Z" stroke="#DB00FF" stroke-width="4" shape-rendering="crispEdges" mask="url(#path-1-inside-1_19_105)"/>
</g>
<defs>
<filter id="filter0_d_19_105" x="-0.00038147" y="0.998413" width="83.0008" height="108.002" filterUnits="userSpaceOnUse" color-interpolation-filters="sRGB">
<feFlood flood-opacity="0" result="BackgroundImageFix"/>
<feColorMatrix in="SourceAlpha" type="matrix" values="0 0 0 0 0 0 0 0 0 0 0 0 0 0 0 0 0 0 127 0" result="hardAlpha"/>
<feOffset dy="4"/>
<feGaussianBlur stdDeviation="2"/>
<feComposite in2="hardAlpha" operator="out"/>
<feColorMatrix type="matrix" values="0 0 0 0 0.86 0 0 0 0 0 0 0 0 0 1 0 0 0 1 0"/>
<feBlend mode="normal" in2="BackgroundImageFix" result="effect1_dropShadow_19_105"/>
<feBlend mode="normal" in="SourceGraphic" in2="effect1_dropShadow_19_105" result="shape"/>
</filter>
</defs>
</svg>
