<svg width="96" height="96" viewBox="0 0 96 96" fill="none" xmlns="http://www.w3.org/2000/svg">
<g filter="url(#filter0_d_19_111)">
<path d="M13.375 1.25H82.125C86.7485 1.25 90.5 5.0015 90.5 9.625V78.375C90.5 82.9985 86.7485 86.75 82.125 86.75H13.375C8.7515 86.75 5 82.9985 5 78.375V9.625C5 5.0015 8.7515 1.25 13.375 1.25ZM32.125 70C34.4038 70 36.25 68.1538 36.25 65.875V40.875C36.25 38.5962 34.4038 36.75 32.125 36.75H25.875C23.5962 36.75 21.75 38.5962 21.75 40.875V65.875C21.75 68.1538 23.5962 70 25.875 70H32.125ZM50.875 70C53.1538 70 55 68.1538 55 65.875V22.125C55 19.8462 53.1538 18 50.875 18H44.625C42.3462 18 40.5 19.8462 40.5 22.125V65.875C40.5 68.1538 42.3462 70 44.625 70H50.875ZM69.625 70C71.9038 70 73.75 68.1538 73.75 65.875V53.375C73.75 51.0962 71.9038 49.25 69.625 49.25H63.375C61.0962 49.25 59.25 51.0962 59.25 53.375V65.875C59.25 68.1538 61.0962 70 63.375 70H69.625Z" stroke="#DB00FF" stroke-width="2" shape-rendering="crispEdges"/>
</g>
<defs>
<filter id="filter0_d_19_111" x="0" y="0.25" width="95.5" height="95.5" filterUnits="userSpaceOnUse" color-interpolation-filters="sRGB">
<feFlood flood-opacity="0" result="BackgroundImageFix"/>
<feColorMatrix in="SourceAlpha" type="matrix" values="0 0 0 0 0 0 0 0 0 0 0 0 0 0 0 0 0 0 127 0" result="hardAlpha"/>
<feOffset dy="4"/>
<feGaussianBlur stdDeviation="2"/>
<feComposite in2="hardAlpha" operator="out"/>
<feColorMatrix type="matrix" values="0 0 0 0 0.86 0 0 0 0 0 0 0 0 0 1 0 0 0 0.87 0"/>
<feBlend mode="normal" in2="BackgroundImageFix" result="effect1_dropShadow_19_111"/>
<feBlend mode="normal" in="SourceGraphic" in2="effect1_dropShadow_19_111" result="shape"/>
</filter>
</defs>
</svg>
